<svg width="24" height="24" viewBox="0 0 24 24" fill="none" xmlns="http://www.w3.org/2000/svg">
<g clip-path="url(#clip0_11_55)">
<path d="M9.5 20.3086C9.5 18.7951 8.57656 17.5354 7.25 16.9263L7.25 12.875C8.13125 13.378 9.15781 13.6641 10.25 13.6641L14.75 13.6641C16.4047 13.6641 17.75 14.9884 17.75 16.6172L17.75 16.9263C16.4234 17.5354 15.5 18.7951 15.5 20.3086C15.5 22.3472 17.1781 24 19.25 24C21.3219 24 23 22.3472 23 20.3086C23 18.7951 22.0766 17.5354 20.75 16.9263L20.75 16.6172C20.75 13.3549 18.0641 10.7109 14.75 10.7109L10.25 10.7109C8.59531 10.7109 7.25 9.38664 7.25 7.75781L7.25 7.44866C8.57656 6.8811 9.5 5.57988 9.5 4.0664C9.5 2.0269 7.82188 0.374999 5.75 0.374998C3.67906 0.374998 2 2.0269 2 4.0664C2 5.57988 2.92578 6.8811 4.25 7.44866L4.25 16.9263C2.92578 17.5354 2 18.7951 2 20.3086C2 22.3472 3.67906 24 5.75 24C7.82188 24 9.5 22.3472 9.5 20.3086ZM5.75 19.2012C6.37109 19.2012 6.875 19.6972 6.875 20.3086C6.875 20.92 6.37109 21.416 5.75 21.416C5.12891 21.416 4.625 20.92 4.625 20.3086C4.625 19.6972 5.12891 19.2012 5.75 19.2012ZM19.25 21.416C18.6266 21.416 18.125 20.92 18.125 20.3086C18.125 19.6972 18.6266 19.2012 19.25 19.2012C19.8734 19.2012 20.375 19.6972 20.375 20.3086C20.375 20.92 19.8734 21.416 19.25 21.416ZM5.75 2.95898C6.3711 2.95898 6.875 3.45271 6.875 4.0664C6.875 4.6801 6.3711 5.17383 5.75 5.17383C5.12891 5.17383 4.625 4.6801 4.625 4.0664C4.625 3.45271 5.12891 2.95898 5.75 2.95898Z" fill="black"/>
</g>
<defs>
<clipPath id="clip0_11_55">
<rect width="24" height="24" fill="white" transform="matrix(1 8.74228e-08 8.74228e-08 -1 0 24)"/>
</clipPath>
</defs>
</svg>
