<svg width="22" height="25" viewBox="0 0 22 25" fill="none" xmlns="http://www.w3.org/2000/svg">
<path d="M18.2769 6.76923C16.8892 6.76923 15.7342 5.93577 15.1758 4.73846L13.5385 4.73846C12.7896 4.73846 12.1846 5.34346 12.1846 6.09231L12.1846 10.8519L15.5058 10.8519L15.5058 13.3692L12.1846 13.3692L12.1846 17.9385C12.1846 18.6873 12.7896 19.2923 13.5385 19.2923L15.1758 19.2923C15.7342 18.095 16.8892 17.2615 18.2769 17.2615C20.1461 17.2615 21.6615 18.7762 21.6615 20.6462C21.6615 22.5162 20.1461 24.0308 18.2769 24.0308C16.8892 24.0308 15.7342 23.1973 15.1758 22L13.5385 22C11.2962 22 9.47692 20.1808 9.47692 17.9385L9.47692 13.3692L6.48577 13.3692C5.96538 14.5665 4.77231 15.4 3.38461 15.4C1.51461 15.4 -1.2328e-06 13.8854 -1.15106e-06 12.0154C-1.06932e-06 10.1454 1.51461 8.63077 3.38461 8.63077C4.77231 8.63077 5.96538 9.46423 6.48577 10.6615L9.47692 10.6615L9.47692 6.09231C9.47692 3.84915 11.2962 2.03077 13.5385 2.03077L15.1758 2.03077C15.7342 0.835577 16.8892 -2.23399e-07 18.2769 -1.62741e-07C20.1461 -8.10376e-08 21.6615 1.51546 21.6615 3.38462C21.6615 5.25462 20.1461 6.76923 18.2769 6.76923ZM17.2615 3.38462C17.2615 3.94519 17.7163 4.4 18.2769 4.4C18.8375 4.4 19.2923 3.94519 19.2923 3.38462C19.2923 2.82404 18.8375 2.36923 18.2769 2.36923C17.7163 2.36923 17.2615 2.82404 17.2615 3.38462ZM17.2615 20.6462C17.2615 21.2088 17.7163 21.6615 18.2769 21.6615C18.8375 21.6615 19.2923 21.2088 19.2923 20.6462C19.2923 20.0835 18.8375 19.6308 18.2769 19.6308C17.7163 19.6308 17.2615 20.0835 17.2615 20.6462ZM4.4 12.0154C4.4 11.4527 3.94731 11 3.38461 11C2.82192 11 2.36923 11.4527 2.36923 12.0154C2.36923 12.5781 2.82192 13.0308 3.38461 13.0308C3.94731 13.0308 4.4 12.5781 4.4 12.0154Z" fill="#DDF247"/>
<path d="M18.5731 15.5692C16.6804 15.5692 15.1462 13.9876 15.1462 12.0365C15.1462 10.0855 16.6804 8.50385 18.5731 8.50385C20.4657 8.50385 22 10.0855 22 12.0365C22 13.9876 20.4657 15.5692 18.5731 15.5692ZM18.5731 10.9886C18.0116 10.9886 17.5565 11.4578 17.5565 12.0365C17.5565 12.6153 18.0116 13.0845 18.5731 13.0845C19.1345 13.0845 19.5897 12.6153 19.5897 12.0365C19.5897 11.4578 19.1345 10.9886 18.5731 10.9886Z" fill="#DDF247"/>
</svg>
