<svg width="23" height="26" viewBox="0 0 23 26" fill="none" xmlns="http://www.w3.org/2000/svg">
<path d="M18.2923 7.75385C16.9046 7.75385 15.7496 6.92039 15.1911 5.72308L13.5538 5.72308C12.805 5.72308 12.2 6.32808 12.2 7.07693L12.2 11.8365L15.5211 11.8365L15.5211 14.3539L12.2 14.3539L12.2 18.9231C12.2 19.6719 12.805 20.2769 13.5538 20.2769L15.1911 20.2769C15.7496 19.0796 16.9046 18.2462 18.2923 18.2462C20.1615 18.2462 21.6769 19.7608 21.6769 21.6308C21.6769 23.5008 20.1615 25.0154 18.2923 25.0154C16.9046 25.0154 15.7496 24.1819 15.1911 22.9846L13.5538 22.9846C11.3115 22.9846 9.4923 21.1654 9.4923 18.9231L9.4923 14.3539L6.50115 14.3539C5.98076 15.5512 4.78769 16.3846 3.4 16.3846C1.52999 16.3846 0.0153803 14.87 0.0153803 13C0.0153804 11.13 1.52999 9.61539 3.4 9.61539C4.78769 9.61539 5.98076 10.4488 6.50115 11.6462L9.4923 11.6462L9.4923 7.07693C9.4923 4.83377 11.3115 3.01539 13.5538 3.01539L15.1911 3.01539C15.7496 1.8202 16.9046 0.984619 18.2923 0.984619C20.1615 0.984619 21.6769 2.50008 21.6769 4.36924C21.6769 6.23924 20.1615 7.75385 18.2923 7.75385ZM17.2769 4.36923C17.2769 4.92981 17.7317 5.38462 18.2923 5.38462C18.8529 5.38462 19.3077 4.92981 19.3077 4.36923C19.3077 3.80866 18.8529 3.35385 18.2923 3.35385C17.7317 3.35385 17.2769 3.80866 17.2769 4.36923ZM17.2769 21.6308C17.2769 22.1935 17.7317 22.6462 18.2923 22.6462C18.8529 22.6462 19.3077 22.1935 19.3077 21.6308C19.3077 21.0681 18.8529 20.6154 18.2923 20.6154C17.7317 20.6154 17.2769 21.0681 17.2769 21.6308ZM4.41538 13C4.41538 12.4373 3.96269 11.9846 3.4 11.9846C2.8373 11.9846 2.38461 12.4373 2.38461 13C2.38461 13.5627 2.8373 14.0154 3.4 14.0154C3.96269 14.0154 4.41538 13.5627 4.41538 13Z" fill="black"/>
<path d="M18.5885 16.5539C16.6958 16.5539 15.1615 14.9722 15.1615 13.0212C15.1615 11.0701 16.6958 9.48847 18.5885 9.48847C20.4811 9.48847 22.0154 11.0701 22.0154 13.0212C22.0154 14.9722 20.4811 16.5539 18.5885 16.5539ZM18.5885 11.9732C18.027 11.9732 17.5718 12.4424 17.5718 13.0212C17.5718 13.5999 18.027 14.0691 18.5885 14.0691C19.1499 14.0691 19.6051 13.5999 19.6051 13.0212C19.6051 12.4424 19.1499 11.9732 18.5885 11.9732Z" fill="black"/>
</svg>
