<svg width="24" height="24" viewBox="0 0 24 24" fill="none" xmlns="http://www.w3.org/2000/svg">
<path d="M19.5 17L22 19.5L19.5 22" stroke="#DDF247" stroke-width="2" stroke-linecap="round" stroke-linejoin="round"/>
<path d="M4 6C4.53043 6 5.03914 5.78929 5.41421 5.41421C5.78929 5.03914 6 4.53043 6 4C6 3.46957 5.78929 2.96086 5.41421 2.58579C5.03914 2.21071 4.53043 2 4 2C3.46957 2 2.96086 2.21071 2.58579 2.58579C2.21071 2.96086 2 3.46957 2 4C2 4.53043 2.21071 5.03914 2.58579 5.41421C2.96086 5.78929 3.46957 6 4 6V6Z" stroke="#DDF247" stroke-width="2" stroke-linejoin="round"/>
<path d="M6 4H10C10.5304 4 11.0391 4.21071 11.4142 4.58579C11.7893 4.96086 12 5.46957 12 6V17.5C12 18.0304 12.2107 18.5391 12.5858 18.9142C12.9609 19.2893 13.4696 19.5 14 19.5H22" stroke="#DDF247" stroke-width="2" stroke-linecap="round" stroke-linejoin="round"/>
</svg>
